<svg width="630" height="512" viewBox="0 0 630 512" fill="none" xmlns="http://www.w3.org/2000/svg">
<path d="M247.578 283.66C249.872 242.749 269.905 206.706 300.129 181.155C329.769 156.059 369.663 140.721 413.192 140.721C456.678 140.721 496.573 156.059 526.234 181.155C556.436 206.706 576.47 242.749 578.785 283.617C581.078 325.652 564.181 364.703 534.542 393.65C504.318 423.094 461.33 441.57 413.192 441.57C365.055 441.57 321.98 423.094 291.778 393.65C262.117 364.703 245.263 325.652 247.578 283.66Z" fill="white"/>
<path d="M328.093 287.357C329.269 266.366 339.549 247.872 355.057 234.762C370.265 221.885 390.735 214.015 413.07 214.015C435.383 214.015 455.853 221.885 471.073 234.762C486.57 247.872 496.849 266.366 498.037 287.335C499.213 308.904 490.544 328.941 475.335 343.794C459.827 358.902 437.77 368.382 413.07 368.382C388.371 368.382 366.269 358.902 350.772 343.794C335.553 328.941 326.905 308.904 328.093 287.357Z" fill="#265787"/>
<path d="M192.772 329.873C192.916 338.088 195.536 354.051 199.466 366.517C207.725 392.904 221.734 417.314 241.227 438.827C261.231 460.94 285.864 478.702 314.316 491.312C344.222 504.555 376.625 511.305 410.283 511.249C443.886 511.205 476.29 504.322 506.195 490.979C534.647 478.246 559.258 460.408 579.228 438.284C598.71 416.682 612.698 392.227 620.979 365.84C625.142 352.508 627.773 338.976 628.827 325.4C629.86 312.023 629.427 298.625 627.528 285.237C623.821 259.15 614.795 234.673 600.897 212.36C588.187 191.857 571.802 173.908 552.32 158.799L552.364 158.766L355.756 7.80641C355.578 7.6732 355.434 7.52911 355.245 7.407C342.346 -2.49489 320.655 -2.46153 306.468 7.46256C292.125 17.4977 290.482 34.0931 303.248 44.5611L303.193 44.6167L385.195 111.299L135.258 111.566H134.925C114.266 111.588 94.4067 125.142 90.4769 142.27C86.4362 159.721 100.468 174.196 121.948 174.274L121.915 174.352L248.598 174.107L22.5392 347.624C22.2505 347.835 21.9397 348.057 21.6733 348.267C0.34839 364.597 -6.54512 391.749 6.88699 408.933C20.5189 426.406 49.5034 426.439 71.0503 409.033L194.426 308.06C194.426 308.06 192.628 321.692 192.772 329.873ZM509.803 375.52C484.382 401.418 448.792 416.104 410.283 416.182C371.719 416.249 336.129 401.696 310.708 375.842C298.286 363.242 289.161 348.745 283.533 333.304C278.016 318.129 275.873 302.022 277.294 285.77C278.637 269.885 283.367 254.732 290.915 241.023C298.331 227.546 308.543 215.369 321.154 205.067C345.865 184.931 377.325 174.029 410.228 173.985C443.164 173.941 474.602 184.742 499.335 204.812C511.923 215.069 522.125 227.202 529.541 240.656C537.123 254.355 541.818 269.452 543.217 285.381C544.616 301.611 542.473 317.696 536.956 332.882C531.317 348.367 522.225 362.865 509.803 375.52Z" fill="#EA7600"/>
</svg>
