<svg height="60pt" viewBox="0 0 60 60" width="60pt" xmlns="http://www.w3.org/2000/svg"><path d="M29.41 0h2.6c7.93 1.26 12 9.45 13.15 16.65 6.6 1.38 13.84 5.43 14.84 12.76v2.6c-1.26 7.96-9.46 11.98-16.65 13.17-1.36 6.61-5.46 13.82-12.78 14.82h-2.58c-7.95-1.26-11.99-9.46-13.15-16.65-6.61-1.38-13.84-5.43-14.84-12.76v-2.6c1.26-7.94 9.45-11.99 16.64-13.15 1.37-6.62 5.46-13.83 12.77-14.84m-4.09 8.4c-3.64 4.59-4.03 10.87-2.97 16.43 4.1-5.12 10.37-8.16 16.88-8.58-.76-3.99-2.39-8.46-6.33-10.29-2.72-1.31-5.88.2-7.58 2.44m-19.38 18.74c-1.28 2.72.24 5.86 2.48 7.56 4.6 3.62 10.87 4 16.43 2.96-5.16-4.08-8.18-10.38-8.61-16.9-3.99.77-8.48 2.41-10.3 6.38m29.18-4.8c5.17 4.08 8.17 10.38 8.59 16.9 3.99-.75 8.47-2.37 10.32-6.31 1.45-2.99-.47-6.38-3.01-8.05-4.58-3.27-10.54-3.49-15.9-2.54m-6.89 3.88c-2.75 1.18-3.21 5.34-.73 7.04 2.5 2.2 6.76-.02 6.64-3.26.09-2.9-3.33-5.1-5.91-3.78m-7.46 17.53c.76 4.01 2.41 8.5 6.39 10.32 2.7 1.26 5.8-.23 7.49-2.44 3.67-4.61 4.06-10.92 2.99-16.51-4.06 5.19-10.35 8.18-16.87 8.63z" fill="#fff"></path></svg>