<svg width="321" height="186" viewBox="0 0 321 186" fill="none" xmlns="http://www.w3.org/2000/svg">
<path d="M280.02 137.592C273.914 132.741 264.999 133.772 260.151 139.883C254.148 147.458 248.695 152.018 242.478 154.672C231.014 159.554 221.296 157.491 211.9 148.175C202.694 139.048 193.724 129.103 185.021 119.464C180.764 114.748 176.499 110.023 172.179 105.353C164.798 97.3764 157.378 89.4309 149.966 81.4775L149.313 80.7766C133.19 63.5078 116.524 45.6482 100.448 27.7099C87.7008 13.4805 68.0054 6.4326 49.0575 9.28326C29.6923 12.1812 14.0336 24.5837 4.9611 44.1992C-3.78089 63.0903 -0.822313 84.5564 12.6724 100.219C36.4124 127.772 56.4385 150.553 79.8948 171.98C89.487 180.736 101.093 185.398 113.455 185.461C121.473 185.501 133.56 184.595 145.89 176.287C151.288 172.649 156.316 168.909 158.527 163.2C160.778 157.357 158.677 150.64 153.405 146.852C148.29 143.167 141.578 143.427 136.699 147.482C136.085 147.994 135.416 148.585 134.685 149.223C127.021 155.94 117.484 164.302 98.04 150.333C80.2255 137.529 66.4318 120.748 50.4503 101.314C45.2412 94.9821 39.8511 88.4306 34.0912 81.737C27.9378 74.595 26.6079 64.7677 30.621 56.0819C34.1228 48.5224 40.8818 39.12 53.2516 37.2697C62.623 35.8599 73.1278 39.6081 79.3993 46.6011C95.6089 64.6968 112.401 82.698 128.642 100.093C136.251 108.243 143.86 116.401 151.429 124.583C155.671 129.166 159.857 133.804 164.106 138.513C173.029 148.396 182.251 158.609 191.993 168.271C209.579 185.713 231.438 190.131 253.573 180.705C264.204 176.161 273.34 168.783 282.31 157.467C287.149 151.364 286.126 142.45 280.02 137.592Z" fill="white"/>
<path d="M302.146 58.9833C311.29 54.6443 318.482 46.4782 319.166 36.572C320.906 19.3742 306.757 2.9163 285.945 0.372596C273.166 -1.24934 261.308 2.5384 252.904 9.50742C248.411 13.2477 247.199 20.1696 251.094 25.0518C255.351 30.1308 260.261 31.0204 268.295 26.6032C271.175 24.9653 275.503 23.6029 280.264 23.9334C289.242 24.5558 291.815 32.6507 291.563 36.3281C291.524 36.8715 291.579 49.4076 278.934 48.5336L274.165 48.2031C268.854 47.8407 263.542 52.8097 263.149 58.4949C262.724 64.5429 267.146 69.8265 272.646 70.2126L278.509 70.614C294.64 71.7323 292.956 85.4339 292.618 87.6233C292.303 93.9229 282.199 104.608 264.18 92.4579C258.066 88.3397 214.457 33.5247 214.457 33.5247C193.794 6.79059 158.684 2.0815 130.978 22.335C127.933 24.5634 125.926 27.8471 125.344 31.5878C124.77 35.3201 125.675 39.0607 127.902 42.108C130.128 45.1554 133.41 47.1636 137.14 47.7462C140.893 48.3291 144.615 47.4156 147.66 45.1869C166.561 31.3673 183.407 39.6037 192.071 50.8174C192.071 50.8174 238.89 111.081 250.945 117.468C258.766 121.61 266.934 124.004 275.235 124.579C300.714 126.342 316.231 112.294 320.418 93.0487C323.164 80.4337 315.012 64.6689 302.146 58.9833Z" fill="white"/>
</svg>
