<svg width="232" height="135" viewBox="0 0 232 135" fill="none" xmlns="http://www.w3.org/2000/svg">
<path d="M227.601 0.0362392H229.811L229.802 0.0271759C230.98 0.0271759 231.931 0.978427 231.931 2.15616V46.8465C231.931 48.0242 230.98 48.9754 229.802 48.9754H227.927C218.532 48.9754 210.922 56.5854 210.922 65.98V113.288C210.922 124.775 201.329 134.098 190.131 134.098C182.793 134.098 176.641 130.709 172.646 125.002L124.595 56.386C121.343 51.7476 116.034 48.9845 110.372 48.9845H110.344C100.95 48.9845 93.3396 56.5944 93.3396 65.9891V113.279C93.3396 126.334 81.0912 136.58 67.7829 133.554C62.465 132.349 57.8537 129.033 54.7282 124.567L1.82098 49.0026C0.634155 47.2995 0 45.2882 0 43.2136V2.18334C0 0.0634153 2.72693 -0.788162 3.94086 0.942187L57.7088 77.7301C60.9611 82.3686 66.433 85.1317 71.9412 85.1317C81.2452 85.1317 88.9458 77.5218 88.9458 68.1271V20.8096C88.9458 9.31313 98.8024 0 109.756 0C116.777 0 123.263 3.39731 127.249 9.09571L175.301 77.7211C178.553 82.3595 184.034 85.1227 189.524 85.1227C198.765 85.1227 206.529 77.5127 206.529 68.118V21.0723C206.529 9.43996 215.969 0.0181274 227.601 0.0362392Z" fill="white"/>
</svg>
